HIERARCHY
ROOT Hip
{
	OFFSET 0.00 0.00 0.00
	CHANNELS 6 Xposition Yposition Zposition Xrotation Yrotation Zrotation
	JOINT Left_Thigh
	{
		OFFSET 3.93700 0.00000 0.00000
		CHANNELS 3 Xrotation Yrotation Zrotation
		JOINT Left_Shin
		{
			OFFSET 0.00000 -19.24635 0.00000
			CHANNELS 3 Xrotation Yrotation Zrotation
			JOINT Left_Foot
			{
				OFFSET 0.00000 -17.00218 -0.00000
				CHANNELS 3 Xrotation Yrotation Zrotation
				JOINT Left_Toe
				{
					OFFSET 0.00000 -1.78320 6.65499
					CHANNELS 3 Xrotation Yrotation Zrotation
					End Site
					{
						OFFSET 0.00000 0.00000 2.95275
					}
				}
			}
		}
	}
	JOINT Right_Thigh
	{
		OFFSET -3.93700 0.00000 0.00000
		CHANNELS 3 Xrotation Yrotation Zrotation
		JOINT Right_Shin
		{
			OFFSET 0.00000 -19.24635 0.00000
			CHANNELS 3 Xrotation Yrotation Zrotation
			JOINT Right_Foot
			{
				OFFSET 0.00000 -17.00218 0.00000
				CHANNELS 3 Xrotation Yrotation Zrotation
				JOINT Right_Toe
				{
					OFFSET 0.00000 -1.78320 6.65499
					CHANNELS 3 Xrotation Yrotation Zrotation
					End Site
					{
						OFFSET 0.00000 0.00000 2.95275
					}
				}
			}
		}
	}
	JOINT Abdomen
	{
		OFFSET 0.00000 0.03937 0.00000
		CHANNELS 3 Xrotation Yrotation Zrotation
		JOINT Chest
		{
			OFFSET 0.00000 8.42896 0.00000
			CHANNELS 3 Xrotation Yrotation Zrotation
			JOINT Neck
			{
				OFFSET 0.00000 7.29157 0.00000
				CHANNELS 3 Xrotation Yrotation Zrotation
				JOINT Head_comp
				{
					OFFSET 0.00000 4.22110 0.00000
					CHANNELS 3 Xrotation Yrotation Zrotation
					End Site
					{
						OFFSET 0.00000 4.22110 0.00000
					}
				}
			}
			JOINT Left_Collar
			{
				OFFSET 0.00000 7.29157 0.00000
				CHANNELS 3 Xrotation Yrotation Zrotation
				JOINT Left_Shoulder
				{
					OFFSET 5.90550 0.00000 0.00000
					CHANNELS 3 Xrotation Yrotation Zrotation
					JOINT Left_Forearm
					{
						OFFSET 11.59585 0.00000 0.00000
						CHANNELS 3 Xrotation Yrotation Zrotation
						JOINT Left_Hand
						{
							OFFSET 8.38509 0.00000 0.00000
							CHANNELS 3 Xrotation Yrotation Zrotation
							JOINT L1ProxPhalanx
							{
								OFFSET 1.09197 2.42158 -0.70498
								CHANNELS 3 Zrotation Xrotation Yrotation
								JOINT L1MidPhalanx
								{
									OFFSET 0.54914 1.69807 0.00037
									CHANNELS 3 Xrotation Yrotation Zrotation
									JOINT L1DistPhalanx
									{
										OFFSET 0.34223 0.98477 -0.13890
										CHANNELS 3 Xrotation Yrotation Zrotation
										End Site
										{
											OFFSET 0.30414 0.90123 -0.07454
										}
									}
								}
							}
							JOINT L2ProxPhalanx
							{
								OFFSET 0.20570 2.50174 -0.52444
								CHANNELS 3 Zrotation Xrotation Yrotation
								JOINT L2MidPhalanx
								{
									OFFSET -0.25811 1.79891 -0.09553
									CHANNELS 3 Xrotation Yrotation Zrotation
									JOINT L2DistPhalanx
									{
										OFFSET -0.15680 1.09225 -0.05298
										CHANNELS 3 Xrotation Yrotation Zrotation
										End Site
										{
											OFFSET -0.15297 1.06215 -0.02141
										}
									}
								}
							}
							JOINT L3ProxPhalanx
							{
								OFFSET -0.68298 2.32110 -0.37433
								CHANNELS 3 Zrotation Xrotation Yrotation
								JOINT L3MidPhalanx
								{
									OFFSET -0.56320 1.55045 -0.08792
									CHANNELS 3 Xrotation Yrotation Zrotation
									JOINT L3DistPhalanx
									{
										OFFSET -0.34522 0.95085 -0.05080
										CHANNELS 3 Xrotation Yrotation Zrotation
										End Site
										{
											OFFSET -0.35953 0.99671 -0.01102
										}
									}
								}
							}
							JOINT L4ProxPhalanx
							{
								OFFSET -1.60546 2.01050 -0.41468
								CHANNELS 3 Zrotation Xrotation Yrotation
								JOINT L4MidPhalanx
								{
									OFFSET -0.81697 0.78962 -0.37932
									CHANNELS 3 Xrotation Yrotation Zrotation
									JOINT L4DistPhalanx
									{
										OFFSET -0.51445 0.51600 -0.16745
										CHANNELS 3 Xrotation Yrotation Zrotation
										End Site
										{
											OFFSET -0.66687 0.68407 -0.15932
										}
									}
								}
							}
							JOINT L5ProxPhalanx
							{
								OFFSET 1.32642 0.01652 -0.91353
								CHANNELS 3 Xrotation Yrotation Zrotation
								JOINT L5MidPhalanx
								{
									OFFSET 0.56037 -0.04452 -1.10949
									CHANNELS 3 Xrotation Yrotation Zrotation
									JOINT L5DistPhalanx
									{
										OFFSET 0.56894 -0.31394 -0.93677
										CHANNELS 3 Xrotation Yrotation Zrotation
										End Site
										{
											OFFSET 0.15316 0.30870 -1.10710
										}
									}
								}
							}
						}
					}
				}
			}
			JOINT Right_Collar
			{
				OFFSET 0.00000 7.29157 0.00000
				CHANNELS 3 Xrotation Yrotation Zrotation
				JOINT Right_Shoulder
				{
					OFFSET -5.90550 0.00000 0.00000
					CHANNELS 3 Xrotation Yrotation Zrotation
					JOINT Right_Forearm
					{
						OFFSET -11.59585 -0.00000 0.00000
						CHANNELS 3 Xrotation Yrotation Zrotation
						JOINT Right_Hand
						{
							OFFSET -8.38509 -0.00000 0.00000
							CHANNELS 3 Xrotation Yrotation Zrotation
							JOINT R1ProxPhalanx
							{
								OFFSET -1.68547 2.46874 -0.24056
								CHANNELS 3 Zrotation Xrotation Yrotation
								JOINT R1MidPhalanx
								{
									OFFSET -0.10277 1.47086 -0.45732
									CHANNELS 3 Xrotation Yrotation Zrotation
									JOINT R1DistPhalanx
									{
										OFFSET -0.08662 0.93830 -0.07738
										CHANNELS 3 Xrotation Yrotation Zrotation
										End Site
										{
											OFFSET -0.07343 0.79543 -0.06560
										}
									}
								}
							}
							JOINT R2ProxPhalanx
							{
								OFFSET -0.85407 2.65552 -0.00744
								CHANNELS 3 Zrotation Xrotation Yrotation
								JOINT R2MidPhalanx
								{
									OFFSET -0.20884 1.70284 -0.28882
									CHANNELS 3 Xrotation Yrotation Zrotation
									JOINT R2DistPhalanx
									{
										OFFSET -0.13336 1.10092 -0.23410
										CHANNELS 3 Xrotation Yrotation Zrotation
										End Site
										{
											OFFSET -0.11503 0.94711 -0.19274
										}
									}
								}
							}
							JOINT R3ProxPhalanx
							{
								OFFSET 0.20418 2.54564 0.23484
								CHANNELS 3 Zrotation Xrotation Yrotation
								JOINT R3MidPhalanx
								{
									OFFSET -0.04892 1.76626 -0.37155
									CHANNELS 3 Xrotation Yrotation Zrotation
									JOINT R3DistPhalanx
									{
										OFFSET -0.02641 0.95308 -0.21249
										CHANNELS 3 Xrotation Yrotation Zrotation
										End Site
										{
											OFFSET -0.02537 0.91606 -0.19270
										}
									}
								}
							}
							JOINT R4ProxPhalanx
							{
								OFFSET 0.88895 2.32064 0.25776
								CHANNELS 3 Zrotation Xrotation Yrotation
								JOINT R4MidPhalanx
								{
									OFFSET 0.43367 1.29723 -0.28031
									CHANNELS 3 Xrotation Yrotation Zrotation
									JOINT R4DistPhalanx
									{
										OFFSET 0.24248 0.73091 -0.16650
										CHANNELS 3 Xrotation Yrotation Zrotation
										End Site
										{
											OFFSET 0.26427 0.78713 -0.16490
										}
									}
								}
							}
							JOINT R5ProxPhalanx
							{
								OFFSET -1.27353 -0.34685 -0.51300
								CHANNELS 3 Xrotation Yrotation Zrotation
								JOINT R5MidPhalanx
								{
									OFFSET -0.97380 1.27673 -0.24634
									CHANNELS 3 Xrotation Yrotation Zrotation
									JOINT R5DistPhalanx
									{
										OFFSET -0.70681 0.85176 -0.10722
										CHANNELS 3 Xrotation Yrotation Zrotation
										End Site
										{
											OFFSET -0.60213 0.74049 -0.11612
										}
									}
								}
							}
						}
					}
				}
			}
		}
	}
}
MOTION
Frames: 10
Frame Time: 0.008333
 6.0819 38.3335 -10.9432 13.3893 4.5477 0.1414 -20.8816 4.0819 5.2848 27.5423 0.0 0.0 -20.413 11.879 -8.6477 16.406 0.0 0.0 -17.7106 -11.4048 -3.7695 19.8389 0.0 0.0 -24.3994 -23.68 5.0394 24.5179 0.0 -0.0 -16.0253 -1.9663 -4.3442 -4.9532 -2.687 0.1499 23.261 -6.6766 6.6501 -19.1071 -7.6483 -1.7357 -2.437 9.142 -2.605 -16.8095 -3.313 -14.6292 -0.0 -37.5432 -0.0 15.9766 -83.6852 -79.0863 29.2566 -10.1045 10.5393 -14.7388 5.0617 -1.9133 -15.5099 5.3391 -1.9773 4.2663 -4.008 -0.0483 -24.1979 -3.3019 -1.1127 -36.6809 -4.7395 -2.197 -12.027 -7.0503 -4.4631 -14.1053 -5.123 0.1516 -19.8295 -7.1746 -0.1465 -32.8365 7.796 -4.6143 -10.055 -9.5063 1.6293 -10.2966 -9.738 1.648 32.6082 3.6166 53.9402 9.9417 8.0041 2.8745 -39.5566 -20.8736 -20.5048 -6.3067 -2.3895 5.3465 -22.984 -5.0961 13.3919 0.0 25.6028 -0.0 -1.369 83.1191 80.4598 -3.2497 10.7303 0.4712 -23.842 -1.8417 -2.7605 -11.7163 -1.05 -1.2615 -5.887 10.573 1.4508 -18.8436 -2.2692 -1.0436 -5.4241 -0.6873 -0.2231 -3.4931 1.1693 -0.6327 -5.6848 -0.156 -0.0001 2.1681 0.0594 -0.004 9.8516 0.4389 2.2509 -3.6056 1.3458 0.8262 -8.4951 3.0703 2.0703 7.2569 -44.2179 13.8595 -3.1408 -2.8413 -3.1417 11.1237 12.9036 11.1281 
6.0816 38.3327 -10.9429 13.3831 4.5455 0.1355 -20.9016 4.129 5.3058 27.5851 -0.0 -0.0 -20.4121 11.8271 -8.6462 16.3761 0.0 -0.0 -17.7038 -11.4058 -3.7624 19.8417 0.0 -0.0 -24.3985 -23.6754 5.0387 24.5094 -0.0 -0.0 -16.0212 -1.9645 -4.3392 -4.9546 -2.6846 0.1413 23.2512 -6.6728 6.6567 -19.0864 -7.6273 -1.7297 -2.433 9.1352 -2.6018 -16.7685 -3.3358 -14.6255 0.0 -37.5189 0.0 16.0017 -83.6442 -79.0182 29.1337 -10.1433 10.5461 -14.4398 4.9544 -1.8875 -15.2989 5.2631 -1.9601 4.1711 -4.2986 -0.0796 -23.139 -3.1695 -1.0355 -37.4036 -4.8149 -2.269 -12.0737 -6.9684 -4.4199 -14.3081 -5.1964 0.1446 -19.6254 -7.1022 -0.1323 -32.9005 7.8129 -4.6016 -10.2373 -9.6812 1.6435 -10.041 -9.4929 1.6282 32.5145 3.6912 53.8127 10.059 8.1025 2.9006 -39.2655 -20.7906 -20.3218 -6.307 -2.396 5.3429 -22.9682 -5.1145 13.4137 0.0 25.5966 0.0 -1.2293 83.0843 80.5124 -3.2405 10.9062 0.4992 -23.7289 -1.8358 -2.7458 -11.8767 -1.0625 -1.2802 -5.9348 10.8713 1.5231 -19.5339 -2.3448 -1.0956 -4.9679 -0.6304 -0.2019 -3.5178 1.251 -0.6301 -5.9354 -0.1628 -0.0005 2.5185 0.069 -0.0049 9.8652 0.3003 2.328 -3.286 1.229 0.7497 -8.7642 3.1616 2.1427 7.4279 -43.8319 14.0183 -3.4139 -3.0737 -3.415 11.0681 12.8268 11.0726 
6.0806 38.3333 -10.943 13.3887 4.5482 0.1338 -20.8862 4.0785 5.2947 27.5521 0.0 0.0 -20.4108 11.8814 -8.648 16.4035 0.0 0.0 -17.7057 -11.3934 -3.7576 19.8378 -0.0 -0.0 -24.3922 -23.6912 5.0457 24.4735 0.0 -0.0 -15.9908 -1.9651 -4.3386 -5.0298 -2.683 0.1379 23.2831 -6.6464 6.6532 -19.077 -7.6193 -1.7297 -2.4044 9.1402 -2.61 -16.7438 -3.3485 -14.626 0.0 -37.5148 -0.0 15.9822 -83.6386 -79.0287 29.0484 -10.1417 10.5192 -14.3425 4.9195 -1.8789 -15.4042 5.301 -1.9687 4.0911 -4.1816 -0.0816 -22.9826 -3.1498 -1.0243 -37.5196 -4.827 -2.2807 -12.1378 -6.7788 -4.3121 -14.6053 -5.3037 0.1338 -19.4879 -7.0534 -0.1229 -32.8822 7.7535 -4.9018 -9.6641 -9.1314 1.5969 -10.4764 -9.9104 1.6613 32.4503 3.8511 53.8831 10.0318 8.0796 2.8945 -39.3671 -20.8197 -20.3856 -6.3637 -2.3723 5.411 -22.8183 -5.1252 13.3029 -0.0 25.5724 -0.0 -1.2745 83.076 80.515 -3.2411 10.8819 0.4954 -23.7422 -1.8365 -2.7475 -12.4881 -1.1097 -1.3517 -5.9006 10.7139 1.4847 -19.3207 -2.3216 -1.0794 -5.1368 -0.6515 -0.2097 -3.4744 1.0792 -0.6371 -5.5669 -0.1527 0.0 2.3234 0.0636 -0.0044 9.9805 0.2009 2.4137 -3.0906 1.1573 0.7033 -8.8363 3.186 2.1622 7.5973 -43.7386 14.3638 -3.8295 -3.4228 -3.8307 11.2509 13.0799 11.2554 
6.0803 38.3333 -10.9424 13.3843 4.5507 0.1365 -20.8761 4.0721 5.2901 27.543 0.0 0.0 -20.4104 11.8904 -8.645 16.4138 0.0 -0.0 -17.6991 -11.3966 -3.7605 19.8346 -0.0 -0.0 -24.3993 -23.69 5.0446 24.5198 -0.0 0.0 -16.0245 -1.9733 -4.3184 -4.971 -2.6902 0.0815 23.2784 -6.6296 6.6647 -19.086 -7.5847 -1.7102 -2.4271 9.1424 -2.5945 -16.7366 -3.3518 -14.6048 0.0 -37.4869 0.0 15.9706 -83.6219 -79.0156 29.1376 -10.1528 10.5578 -14.6185 5.0186 -1.903 -15.2633 5.2503 -1.9572 4.1378 -3.9536 -0.0601 -23.5273 -3.2182 -1.0636 -37.1323 -4.7867 -2.2419 -12.0689 -6.9311 -4.3959 -14.4468 -5.2465 0.1396 -19.9402 -7.2138 -0.1543 -32.7687 7.7229 -4.9246 -9.6673 -9.1344 1.5972 -10.652 -10.0788 1.6738 32.3217 4.2895 53.6324 9.8951 7.965 2.8641 -38.8623 -20.674 -20.0689 -6.2907 -2.3913 5.4119 -22.9356 -5.0895 13.3816 0.0 25.5078 0.0 -1.234 83.0978 80.5137 -3.3866 10.6458 0.4406 -23.6408 -1.8312 -2.7344 -12.3861 -1.1019 -1.3398 -6.0219 10.6606 1.4742 -19.5829 -2.3502 -1.0993 -4.8268 -0.6127 -0.1954 -3.5916 1.1677 -0.6517 -5.7346 -0.1573 -0.0002 2.0666 0.0566 -0.0038 10.0518 0.3979 2.3298 -3.1828 1.1912 0.7252 -6.1117 2.2448 1.4467 7.2523 -43.8925 14.0269 -3.6832 -3.3005 -3.6843 11.2559 13.0869 11.2604 
6.0794 38.3325 -10.9418 13.386 4.5359 0.1302 -20.8777 4.0915 5.3043 27.5439 0.0 0.0 -20.4207 11.884 -8.6471 16.406 -0.0 -0.0 -17.6966 -11.3794 -3.7475 19.8319 -0.0 0.0 -24.3949 -23.6951 5.0525 24.4893 0.0 -0.0 -16.0377 -1.9592 -4.3285 -4.9452 -2.6774 0.1 23.2494 -6.6508 6.6825 -19.0664 -7.5552 -1.7162 -2.441 9.1388 -2.5871 -16.7403 -3.3566 -14.6265 0.0 -37.4836 0.0 16.0013 -83.6288 -79.024 29.1863 -10.1979 10.6221 -14.2656 4.892 -1.8722 -16.4961 5.695 -2.0537 4.1786 -4.0706 -0.0632 -22.9173 -3.1416 -1.0197 -37.535 -4.8286 -2.2822 -12.033 -6.9623 -4.4093 -14.4536 -5.2489 0.1394 -19.7133 -7.1334 -0.1384 -32.7522 7.7105 -4.9706 -9.6322 -9.1008 1.5941 -10.7696 -10.1916 1.6818 31.9515 3.9519 54.4831 10.2683 8.2782 2.9466 -39.5631 -20.8755 -20.5089 -6.2888 -2.411 5.4155 -22.9468 -5.1043 13.3529 -0.0 25.5243 -0.0 -1.2876 83.0675 80.6798 -3.3876 10.7191 0.4518 -24.3632 -1.8685 -2.8284 -11.315 -1.0184 -1.215 -6.0439 10.7748 1.5022 -19.6205 -2.3543 -1.1022 -5.2395 -0.6643 -0.2145 -3.5758 1.2052 -0.6453 -5.7242 -0.1571 -0.0002 2.027 0.0555 -0.0037 10.2343 0.252 2.4604 -2.1164 0.7972 0.4752 -7.4693 2.7186 1.798 7.1024 -43.8097 13.8579 -3.6561 -3.2777 -3.6572 11.1061 12.8793 11.1106 
6.0786 38.3328 -10.9411 13.3901 4.5285 0.1292 -20.8782 4.0932 5.3079 27.5412 -0.0 -0.0 -20.4224 11.8842 -8.6551 16.4012 0.0 -0.0 -17.6985 -11.375 -3.7427 19.8271 0.0 0.0 -24.3937 -23.6961 5.0491 24.4953 -0.0 0.0 -16.0534 -1.9597 -4.3408 -4.9416 -2.68 0.1224 23.2706 -6.6131 6.6599 -19.0791 -7.5648 -1.7101 -2.4317 9.1388 -2.5991 -16.739 -3.3479 -14.6239 0.0 -37.4737 0.0 16.0451 -83.6425 -79.0271 29.1623 -10.2341 10.655 -14.3936 4.9379 -1.8834 -15.7261 5.417 -1.9945 4.1109 -4.0923 -0.073 -22.7144 -3.116 -1.0053 -37.7305 -4.8488 -2.3019 -12.0116 -7.059 -4.4659 -14.297 -5.1923 0.145 -19.7267 -7.1382 -0.1393 -32.7281 7.7007 -4.993 -9.6853 -9.1517 1.5987 -10.617 -10.0452 1.6713 31.7892 4.1789 54.4981 10.1984 8.2195 2.9313 -39.5654 -20.8761 -20.5103 -6.3865 -2.3554 5.4779 -22.8015 -5.1349 13.239 0.0 25.5279 -0.0 -1.3815 83.0668 80.698 -3.3956 10.4798 0.4138 -23.8819 -1.8438 -2.7657 -11.7353 -1.0515 -1.2638 -5.9848 10.5856 1.4555 -19.6679 -2.3595 -1.1058 -4.5074 -0.5727 -0.1809 -3.5374 1.1548 -0.6425 -5.9213 -0.1625 -0.0005 2.2531 0.0617 -0.0042 10.2377 0.2545 2.46 -2.2102 0.8321 0.497 -7.4863 2.7245 1.8024 7.0652 -44.0645 13.9115 -3.6668 -3.2868 -3.668 11.0536 12.8068 11.0581 
6.0781 38.3329 -10.9411 13.391 4.526 0.129 -20.875 4.0828 5.3122 27.5262 0.0 -0.0 -20.4265 11.8639 -8.6129 16.4408 0.0 0.0 -17.7005 -11.389 -3.7439 19.8271 -0.0 0.0 -24.3936 -23.6809 5.0547 24.4892 -0.0 -0.0 -16.0567 -1.9607 -4.3461 -4.9424 -2.6809 0.1243 23.2747 -6.6059 6.6605 -19.0825 -7.5564 -1.71 -2.435 9.1409 -2.5996 -16.7241 -3.3489 -14.6178 0.0 -37.4545 0.0 16.0557 -83.6816 -79.0282 29.1741 -10.3044 10.7363 -14.9488 5.1372 -1.9311 -14.7939 5.0815 -1.918 4.0729 -4.1097 -0.0788 -22.5378 -3.0936 -0.9928 -37.8942 -4.8656 -2.3184 -11.9783 -7.1442 -4.5132 -14.2434 -5.173 0.1469 -19.6238 -7.1017 -0.1322 -32.691 7.6838 -5.0367 -9.7035 -9.1692 1.6003 -10.5773 -10.0072 1.6685 31.6991 4.2348 54.3535 10.347 8.3443 2.9637 -39.3797 -20.8233 -20.3936 -6.3914 -2.3542 5.4844 -22.7789 -5.1403 13.2387 0.0 25.4954 0.0 -1.4105 83.1289 80.7042 -3.4375 10.5327 0.4164 -24.3191 -1.8662 -2.8226 -11.9148 -1.0655 -1.2847 -6.1289 10.3663 1.4045 -19.6004 -2.3521 -1.1006 -4.6981 -0.5966 -0.1895 -3.6787 0.9606 -0.6875 -5.7072 -0.1566 -0.0002 1.6395 0.0449 -0.0028 10.1733 -0.0065 2.5803 -2.1008 0.7914 0.4716 -7.4721 2.7196 1.7987 7.3239 -44.1853 14.0916 -3.4886 -3.1368 -3.4896 10.9353 12.6438 10.9397 
6.0785 38.3326 -10.9407 13.3895 4.5328 0.1266 -20.8927 4.1017 5.3198 27.5574 0.0 -0.0 -20.4254 11.8354 -8.6154 16.4439 -0.0 -0.0 -17.698 -11.4053 -3.746 19.8266 0.0 -0.0 -24.3947 -23.6698 5.0549 24.5103 0.0 -0.0 -16.0643 -1.9683 -4.3458 -4.9264 -2.6891 0.1244 23.2676 -6.5927 6.6581 -19.0783 -7.5333 -1.7153 -2.446 9.1538 -2.6022 -16.7205 -3.3397 -14.6179 0.0 -37.4826 0.0 15.8974 -83.7143 -79.0794 29.1886 -10.6007 11.0688 -14.1229 4.8409 -1.8595 -16.076 5.5432 -2.0219 4.0349 -4.5156 -0.1121 -21.221 -2.9259 -0.902 -38.6514 -4.943 -2.3956 -12.0133 -7.2338 -4.575 -13.9941 -5.0828 0.1554 -19.7423 -7.1437 -0.1404 -32.815 7.7541 -4.8143 -9.9919 -9.4457 1.6242 -10.4837 -9.9174 1.6618 31.767 4.6553 53.8794 10.1821 8.2058 2.9277 -39.2882 -20.7971 -20.3361 -6.2892 -2.3868 5.4207 -22.9029 -5.1274 13.3524 0.0 25.4619 -0.0 -1.2571 83.122 80.7076 -3.4245 10.3061 0.3831 -23.8856 -1.844 -2.7662 -11.8743 -1.0623 -1.2799 -6.0203 10.3639 1.4026 -19.2534 -2.3142 -1.0744 -5.6999 -0.7216 -0.2362 -3.5492 1.0484 -0.6543 -5.8029 -0.1592 -0.0003 1.9115 0.0524 -0.0034 10.2441 -0.0435 2.6211 -1.967 0.7416 0.4408 -7.438 2.7078 1.7898 6.9043 -43.8986 13.8536 -3.6763 -3.2947 -3.6774 11.0742 12.8352 11.0787 
6.0776 38.3334 -10.9406 13.3978 4.5353 0.1276 -20.879 4.0708 5.3101 27.5199 -0.0 -0.0 -20.4211 11.8677 -8.6066 16.4446 -0.0 0.0 -17.702 -11.4007 -3.7455 19.8199 0.0 0.0 -24.3883 -23.6775 5.0652 24.489 -0.0 0.0 -16.0374 -1.9712 -4.351 -4.9986 -2.6896 0.1217 23.3014 -6.5764 6.6696 -19.0751 -7.5045 -1.7272 -2.4082 9.1566 -2.6077 -16.7171 -3.3531 -14.6055 0.0 -37.463 0.0 15.8383 -83.6641 -79.0852 29.1307 -10.4718 10.9082 -14.6443 5.0278 -1.9052 -15.2303 5.2384 -1.9545 3.9344 -4.1088 -0.0958 -21.8786 -3.01 -0.9469 -38.2466 -4.9018 -2.3542 -11.9966 -7.0995 -4.4885 -14.332 -5.205 0.1437 -19.5409 -7.0723 -0.1265 -32.7876 7.7426 -4.8416 -9.9998 -9.4534 1.6249 -10.2669 -9.7095 1.6458 31.5365 4.5465 54.1802 10.295 8.3006 2.9524 -39.649 -20.8998 -20.5629 -6.244 -2.4073 5.418 -22.9303 -5.1266 13.3752 0.0 25.4433 0.0 -1.2105 83.1111 80.7449 -3.4348 10.2497 0.373 -23.7369 -1.8362 -2.7468 -12.1186 -1.0813 -1.3085 -6.0077 10.427 1.4176 -19.5357 -2.345 -1.0957 -5.3087 -0.6729 -0.2177 -3.5646 1.0928 -0.6533 -5.9653 -0.1637 -0.0005 1.9568 0.0536 -0.0035 10.1845 0.1095 2.5219 -2.3189 0.8724 0.5222 -7.378 2.6871 1.774 6.8325 -44.0324 13.6672 -3.3861 -3.0501 -3.3871 11.0133 12.7512 11.0178 
6.0769 38.3328 -10.9407 13.3926 4.5337 0.1294 -20.8728 4.0769 5.3099 27.5169 -0.0 -0.0 -20.4253 11.8718 -8.6137 16.4662 0.0 -0.0 -17.6974 -11.4053 -3.7471 19.8201 0.0 -0.0 -24.3942 -23.6675 5.0669 24.5117 0.0 -0.0 -16.0655 -1.9672 -4.3596 -4.9387 -2.687 0.1272 23.2782 -6.5721 6.6632 -19.0779 -7.4989 -1.72 -2.441 9.1551 -2.6083 -16.7264 -3.3507 -14.6014 0.0 -37.4473 0.0 15.9613 -83.6606 -79.1758 29.057 -10.6304 11.0604 -14.107 4.8352 -1.8581 -15.7499 5.4256 -1.9964 3.8631 -4.0765 -0.1022 -21.6091 -2.9756 -0.9284 -38.4485 -4.9224 -2.3748 -12.048 -6.997 -4.4334 -14.5534 -5.285 0.1357 -19.3733 -7.0127 -0.1152 -32.8013 7.7424 -4.8604 -10.0199 -9.4727 1.6265 -10.1819 -9.628 1.6392 31.5277 4.4222 54.1356 10.4464 8.4279 2.9853 -39.3256 -20.8079 -20.3596 -6.2753 -2.4067 5.4192 -22.9288 -5.1443 13.3747 0.0 25.4473 -0.0 -0.9535 83.0086 80.7257 -3.3962 10.2563 0.3793 -24.0252 -1.8512 -2.7843 -12.1765 -1.0857 -1.3152 -6.0104 10.3668 1.4032 -19.8676 -2.3812 -1.121 -4.5448 -0.5774 -0.1826 -3.536 0.9194 -0.6634 -5.7839 -0.1587 -0.0003 1.8678 0.0512 -0.0033 10.161 -0.0894 2.6207 -2.3204 0.873 0.5225 -7.3273 2.6695 1.7607 7.2584 -43.8473 14.12 -3.6671 -3.287 -3.6682 11.135 12.9193 11.1395 
